HIERARCHY
ROOT hip
{
	OFFSET 0.000000 0.000000 0.000000 
	CHANNELS 6 Xposition Yposition Zposition Xrotation Zrotation Yrotation
	JOINT abdomen
	{
		OFFSET 0.000000 3.402643 0.000000 
		CHANNELS 3 Xrotation Zrotation Yrotation
		JOINT chest
		{
			OFFSET 0.000000 8.438565 -0.680529 
			CHANNELS 3 Xrotation Zrotation Yrotation
			JOINT neck
			{
				OFFSET 0.000000 10.207942 -0.272212 
				CHANNELS 3 Xrotation Zrotation Yrotation
				JOINT head
				{
					OFFSET 0.000000 3.130431 0.000000 
					CHANNELS 3 Xrotation Zrotation Yrotation
					End Site
					{
						OFFSET 0.000000 3.130435 0.000000 
					}
				}
			}
			JOINT lCollar
			{
				OFFSET 3.470700 6.669187 -0.816635 
				CHANNELS 3 Yrotation Zrotation Xrotation
				JOINT lShldr
				{
					OFFSET 3.198488 0.000000 0.000000 
					CHANNELS 3 Zrotation Yrotation Xrotation
					JOINT lForeArm
					{
						OFFSET 10.139888 0.000000 0.000000 
						CHANNELS 3 Yrotation Zrotation Xrotation
						JOINT lHand
						{
							OFFSET 8.370511 0.000000 0.000000 
							CHANNELS 3 Zrotation Yrotation Xrotation
							End Site
							{
								OFFSET 4.083176 0.000000 0.000000 
							}
						}
					}
				}
			}
			JOINT rCollar
			{
				OFFSET -3.470700 6.669187 -0.816635 
				CHANNELS 3 Yrotation Zrotation Xrotation
				JOINT rShldr
				{
					OFFSET -3.198488 0.000000 0.000000 
					CHANNELS 3 Zrotation Yrotation Xrotation
					JOINT rForeArm
					{
						OFFSET -10.139888 0.000000 0.000000 
						CHANNELS 3 Yrotation Zrotation Xrotation
						JOINT rHand
						{
							OFFSET -8.370511 0.000000 0.000000 
							CHANNELS 3 Zrotation Yrotation Xrotation
							End Site
							{
								OFFSET -4.083176 0.000000 0.000000 
							}
						}
					}
				}
			}
		}
	}
	JOINT lThigh
	{
		OFFSET 5.308129 -1.633274 1.361059 
		CHANNELS 3 Xrotation Zrotation Yrotation
		JOINT lShin
		{
			OFFSET -2.041588 -20.007561 0.000000 
			CHANNELS 3 Xrotation Zrotation Yrotation
			JOINT lFoot
			{
				OFFSET 0.000000 -19.190928 -1.224953 
				CHANNELS 3 Xrotation Yrotation Zrotation
				End Site
				{
					OFFSET 0.000000 -2.449906 4.627600 
				}
			}
		}
	}
	JOINT rThigh
	{
		OFFSET -5.308129 -1.633274 1.361059 
		CHANNELS 3 Xrotation Zrotation Yrotation
		JOINT rShin
		{
			OFFSET 2.041588 -20.007561 0.000000 
			CHANNELS 3 Xrotation Zrotation Yrotation
			JOINT rFoot
			{
				OFFSET 0.000000 -19.190928 -1.224953 
				CHANNELS 3 Xrotation Yrotation Zrotation
				End Site
				{
					OFFSET 0.000000 -2.449906 4.627600 
				}
			}
		}
	}
}
MOTION
Frames: 8
Frame Time: 0.011111
52.659687 28.155525 -20.798853 -4.759023 -22.250095 -89.343475 78.156471 -5.597926 4.495370 -21.972868 2.812496 0.647372 -9.472795 6.044460 17.488258 13.552981 -13.840863 35.050667 9.969777 -14.785672 3.853935 10.567614 -97.997345 -8.274328 -70.128952 9.139490 17.147902 8.524705 12.647240 -72.337288 -4.049711 8.641859 2.072876 48.587177 76.534760 50.947292 80.229813 -6.379279 22.617014 -8.534408 -12.637552 31.322124 -66.324982 15.848871 -1.724429 71.993614 -1.286885 -9.019627 13.814094 7.597684 -3.868905 -68.491982 -20.897430 1.174787 72.568314 1.201111 9.039634 13.701344 -5.292936 3.345197 
52.660946 28.146126 -20.805433 -4.629541 -22.242647 -89.386147 78.237259 -6.065099 5.207781 -21.888269 2.157058 0.902906 -10.158370 7.454777 16.912092 14.430887 -14.475413 33.958454 9.969777 -14.785672 3.853935 7.950586 -98.063240 -4.129706 -70.056450 9.149751 17.108891 8.524705 12.647240 -71.829483 -4.049711 8.641859 2.072876 48.757301 76.452652 49.621391 80.147324 -6.421072 22.578257 -8.534408 -12.637552 31.136578 -66.409027 15.965216 -1.772844 71.954575 -1.287019 -9.016933 13.941891 7.536131 -3.850609 -68.424881 -20.780821 1.072791 72.558250 1.191426 9.041721 13.696986 -5.182322 3.311946 
52.681618 28.147694 -20.812952 -4.562731 -22.204956 -89.414948 78.098770 -5.549639 4.738386 -21.935097 2.549818 0.689429 -9.188747 6.576023 17.156218 13.455539 -14.935674 34.333595 9.969777 -14.785672 3.853935 8.399165 -98.022415 -5.454041 -70.024422 9.152729 17.096022 8.524705 12.647240 -71.917374 -4.049711 8.641859 2.072876 49.269367 76.775032 51.133640 80.081345 -6.450666 22.531301 -8.534408 -12.637552 31.185408 -66.471664 16.024706 -1.802826 71.924965 -1.287004 -9.024390 13.996634 7.505493 -3.851414 -68.413391 -20.682482 1.058654 72.519913 1.202096 9.026852 13.673907 -5.224960 3.300947 
52.687260 28.118561 -20.807312 -4.762327 -22.213379 -89.406273 77.990753 -5.277471 4.130651 -21.893976 2.952428 0.509161 -8.563623 5.853542 17.338209 13.079026 -15.176342 34.618076 9.969777 -14.785672 3.853935 9.124313 -97.973259 -6.912552 -70.182739 9.135400 17.172415 8.524705 12.647240 -72.034554 -4.049711 8.641859 2.072876 49.650948 77.051186 52.343060 79.999344 -6.491976 22.481548 -8.534408 -12.637552 31.126812 -66.412277 15.936845 -1.631892 71.944443 -1.296313 -9.032253 14.019341 7.529806 -3.856244 -68.627129 -20.711361 1.319296 72.519524 1.201037 9.036102 13.804423 -5.238630 3.321672 
52.698532 28.086294 -20.792276 -4.529675 -22.268187 -89.539360 78.036835 -5.130297 4.373040 -21.904688 2.767125 0.515711 -8.564319 6.060424 17.177549 13.619178 -15.690825 34.195660 9.969777 -14.785672 3.853935 9.387822 -97.954315 -7.027478 -70.444870 9.102682 17.301023 8.524705 12.647240 -72.200569 -4.049711 8.641859 2.072876 50.015030 77.141258 52.519745 79.924904 -6.526832 22.434315 -8.534408 -12.637552 30.824078 -66.523453 16.062222 -1.898364 71.983559 -1.277199 -9.021779 14.011098 7.469443 -3.850460 -68.455780 -20.517338 1.142630 72.460632 1.201173 9.041619 13.860102 -5.256208 3.319441 
52.716393 28.097570 -20.780685 -3.997764 -22.412525 -89.711601 78.205856 -4.825653 4.959156 -21.886749 2.455891 0.558541 -8.787829 6.295807 16.945946 14.393524 -16.077044 33.631062 9.969777 -14.785672 3.853935 9.309083 -97.948227 -6.686607 -70.644157 9.077519 17.401831 8.524705 12.647240 -72.278702 -4.049711 8.641859 2.072876 50.100872 77.198227 52.470554 79.951981 -6.513331 22.457453 -8.534408 -12.637552 30.794783 -66.631172 16.287174 -2.450126 72.071388 -1.277361 -9.028195 13.975085 7.363764 -3.825394 -67.869209 -20.233900 0.614623 72.402374 1.211367 9.035218 13.776380 -5.218179 3.295665 
52.714195 28.085983 -20.770973 -3.717698 -22.527195 -89.932487 78.251541 -4.578955 5.031690 -21.817831 2.550506 0.499096 -8.628062 6.006188 16.887936 14.617074 -16.362619 33.410183 9.969777 -14.785672 3.853935 9.913747 -97.914017 -7.775019 -70.706116 9.067429 17.430006 8.524705 12.647240 -72.522842 -4.049711 8.641859 2.072876 50.129269 77.364456 53.025040 80.025223 -6.476644 22.495134 -8.534408 -12.637552 31.175640 -66.711540 16.570822 -2.577091 72.226982 -1.248177 -9.038202 14.029149 7.175744 -3.773661 -67.643440 -20.038490 0.396737 72.422295 1.211849 9.026739 13.716621 -5.350399 3.351001 
52.670967 28.018312 -20.770973 -3.672809 -22.560734 -90.072716 78.252129 -4.481679 4.763295 -21.845860 2.801750 0.419410 -8.493078 5.493873 16.863102 15.025072 -16.284842 33.221767 9.969777 -14.785672 3.853935 10.811807 -97.881554 -9.426951 -70.644157 9.077519 17.401831 8.524705 12.647240 -72.903694 -4.049711 8.641859 2.072876 50.424961 77.505104 53.845093 80.016212 -6.481622 22.493916 -8.534408 -12.637552 31.380720 -66.826950 17.009630 -2.163670 72.392914 -1.238345 -9.043190 14.326868 6.710814 -3.661808 -67.811073 -19.999638 0.330468 72.577133 1.182016 9.055625 13.810595 -5.371686 3.339325 
